<?xml version="1.0" encoding="UTF-8"?>
<svg xmlns="http://www.w3.org/2000/svg" xmlns:xlink="http://www.w3.org/1999/xlink" width="200px" height="264px" viewBox="0 0 200 263" version="1.1">
<g id="surface1">
<path style=" stroke:none;fill-rule:nonzero;fill:rgb(100%,100%,100%);fill-opacity:1;" d="M 42.105469 218.273438 C 42.625 218.066406 43.28125 218.167969 43.644531 218.617188 C 43.976562 218.976562 43.914062 219.488281 43.917969 219.941406 C 42.777344 219.9375 41.640625 219.945312 40.503906 219.9375 C 40.808594 219.210938 41.339844 218.539062 42.105469 218.273438 Z M 42.105469 218.273438 "/>
<path style=" stroke:none;fill-rule:nonzero;fill:rgb(100%,100%,100%);fill-opacity:1;" d="M 62.566406 218.273438 C 63.089844 218.066406 63.75 218.167969 64.109375 218.625 C 64.4375 218.980469 64.375 219.492188 64.378906 219.941406 C 63.242188 219.9375 62.101562 219.945312 60.964844 219.9375 C 61.269531 219.210938 61.800781 218.539062 62.566406 218.273438 Z M 62.566406 218.273438 "/>
<path style=" stroke:none;fill-rule:nonzero;fill:rgb(100%,100%,100%);fill-opacity:1;" d="M 112.78125 218.277344 C 113.304688 218.066406 113.964844 218.167969 114.328125 218.617188 C 114.660156 218.976562 114.601562 219.488281 114.601562 219.941406 C 113.464844 219.9375 112.324219 219.945312 111.1875 219.9375 C 111.492188 219.210938 112.023438 218.542969 112.78125 218.277344 Z M 112.78125 218.277344 "/>
<path style=" stroke:none;fill-rule:nonzero;fill:rgb(100%,100%,100%);fill-opacity:1;" d="M 70.398438 222.722656 C 71.089844 222.179688 71.929688 221.894531 72.734375 221.574219 C 72.585938 222.421875 72.453125 223.273438 72.285156 224.117188 C 72.28125 224.351562 72.039062 224.4375 71.878906 224.558594 C 71.445312 224.8125 70.992188 225.085938 70.484375 225.140625 C 70.023438 225.171875 69.660156 224.734375 69.640625 224.308594 C 69.574219 223.683594 69.921875 223.089844 70.398438 222.722656 Z M 70.398438 222.722656 "/>
<path style=" stroke:none;fill-rule:nonzero;fill:rgb(100%,100%,100%);fill-opacity:1;" d="M 140.078125 223.195312 C 140.746094 222.308594 141.875 221.980469 142.863281 221.574219 C 142.710938 222.421875 142.578125 223.269531 142.414062 224.117188 C 142.390625 224.398438 142.074219 224.484375 141.882812 224.632812 C 141.394531 224.886719 140.839844 225.273438 140.265625 225.078125 C 139.574219 224.714844 139.664062 223.738281 140.078125 223.195312 Z M 140.078125 223.195312 "/>
<path style=" stroke:none;fill-rule:nonzero;fill:rgb(5.490196%,33.333334%,63.137257%);fill-opacity:1;" d="M 106.175781 5.105469 C 114.640625 5.261719 123.097656 5.988281 131.480469 7.171875 C 137.042969 7.988281 142.582031 9.039062 148 10.570312 C 142.394531 25.171875 136.960938 39.835938 131.726562 54.574219 C 126.285156 69.855469 121.300781 85.292969 116.179688 100.679688 C 113.707031 108.175781 111.226562 115.671875 108.746094 123.164062 C 106.429688 130.070312 104.175781 136.996094 101.714844 143.851562 C 103.1875 97.601562 104.699219 51.355469 106.175781 5.105469 Z M 106.175781 5.105469 "/>
<path style=" stroke:none;fill-rule:nonzero;fill:rgb(5.490196%,33.333334%,63.137257%);fill-opacity:1;" d="M 59.804688 132.558594 C 64.730469 132.558594 69.660156 132.558594 74.589844 132.558594 C 74.59375 151.390625 74.585938 170.222656 74.59375 189.050781 C 74.789062 190.78125 74.609375 192.527344 74.710938 194.261719 C 74.855469 195.363281 74.695312 196.480469 74.859375 197.582031 C 74.820312 198.792969 75.011719 199.992188 74.960938 201.203125 C 70.59375 201.203125 66.230469 201.195312 61.867188 201.207031 C 61.582031 198.867188 61.367188 196.519531 61.171875 194.171875 C 60.0625 195.984375 58.710938 197.671875 56.972656 198.925781 C 54.378906 200.855469 51.210938 201.960938 47.996094 202.214844 C 46.8125 202.230469 45.628906 202.21875 44.445312 202.222656 C 39.496094 201.835938 34.789062 199.304688 31.640625 195.488281 C 28 191.175781 26.234375 185.535156 25.949219 179.960938 C 25.980469 178.894531 25.730469 177.828125 25.929688 176.765625 C 25.976562 172.960938 26.71875 169.148438 28.226562 165.640625 C 29.667969 162.332031 31.851562 159.3125 34.714844 157.082031 C 37.515625 154.863281 40.9375 153.449219 44.480469 153 C 45.890625 152.785156 47.320312 152.898438 48.742188 152.875 C 52.171875 153.101562 55.730469 154.09375 58.300781 156.476562 C 58.867188 156.992188 59.320312 157.617188 59.792969 158.21875 C 59.816406 149.664062 59.796875 141.113281 59.804688 132.558594 M 49.199219 164.304688 C 46.214844 164.78125 43.773438 167.007812 42.535156 169.6875 C 40.972656 172.960938 40.664062 176.707031 41.078125 180.273438 C 41.460938 183.144531 42.492188 186.089844 44.667969 188.101562 C 47.878906 191.21875 53.585938 191.375 56.808594 188.191406 C 58.839844 186.34375 59.648438 183.546875 59.800781 180.886719 C 59.804688 178.847656 59.800781 176.804688 59.804688 174.761719 C 59.816406 173.363281 59.792969 171.933594 59.402344 170.582031 C 58.808594 168.703125 57.691406 166.945312 56.074219 165.78125 C 54.148438 164.308594 51.558594 163.828125 49.199219 164.304688 Z M 49.199219 164.304688 "/>
<path style=" stroke:none;fill-rule:nonzero;fill:rgb(5.490196%,33.333334%,63.137257%);fill-opacity:1;" d="M 128.347656 132.558594 C 133.308594 132.558594 138.269531 132.558594 143.230469 132.558594 C 143.226562 155.441406 143.234375 178.324219 143.226562 201.203125 C 138.269531 201.199219 133.308594 201.203125 128.351562 201.203125 C 128.34375 178.320312 128.351562 155.441406 128.347656 132.558594 Z M 128.347656 132.558594 "/>
<path style=" stroke:none;fill-rule:nonzero;fill:rgb(5.490196%,33.333334%,63.137257%);fill-opacity:1;" d="M 90.53125 156.894531 C 94.042969 154.222656 98.5 153 102.871094 152.867188 C 107.871094 152.738281 113.007812 153.390625 117.558594 155.554688 C 116.679688 158.96875 115.796875 162.386719 114.917969 165.804688 C 112 164.273438 108.769531 163.320312 105.480469 163.082031 C 103.710938 163.003906 101.796875 163.160156 100.316406 164.226562 C 98.808594 165.320312 98.558594 167.824219 100 169.082031 C 101.625 170.496094 103.75 171.136719 105.722656 171.914062 C 108.375 172.8125 111.019531 173.839844 113.359375 175.402344 C 115.382812 176.765625 117.183594 178.550781 118.246094 180.765625 C 119.859375 184.21875 119.996094 188.304688 118.75 191.894531 C 117.4375 195.664062 114.289062 198.589844 110.664062 200.148438 C 108.445312 201.152344 106.046875 201.710938 103.636719 202.023438 C 101.289062 202.371094 98.910156 202.167969 96.546875 202.226562 C 92.074219 201.953125 87.589844 200.964844 83.585938 198.914062 C 84.507812 195.382812 85.390625 191.835938 86.246094 188.28125 C 90.546875 190.535156 95.390625 192.066406 100.296875 191.820312 C 101.636719 191.6875 103.058594 191.40625 104.121094 190.523438 C 105.164062 189.6875 105.417969 188.199219 105.125 186.957031 C 104.917969 186.019531 104.195312 185.308594 103.429688 184.785156 C 101.679688 183.714844 99.71875 183.070312 97.78125 182.425781 C 95.046875 181.453125 92.371094 180.21875 90.066406 178.4375 C 87.90625 176.8125 86.113281 174.609375 85.3125 172.007812 C 84.695312 170.15625 84.722656 168.164062 84.949219 166.25 C 85.445312 162.546875 87.535156 159.121094 90.53125 156.894531 Z M 90.53125 156.894531 "/>
<path style=" stroke:none;fill-rule:nonzero;fill:rgb(49.019608%,36.862746%,14.509805%);fill-opacity:1;" d="M 73.84375 6.472656 C 80.472656 5.722656 87.132812 5.25 93.800781 5.101562 C 95.351562 51.339844 96.929688 97.582031 98.378906 143.828125 C 89.644531 117.957031 80.941406 92.078125 72.210938 66.207031 C 68.269531 55.003906 64.289062 43.808594 60.261719 32.632812 C 57.550781 25.152344 54.84375 17.671875 51.984375 10.246094 C 59.167969 8.460938 66.496094 7.332031 73.84375 6.472656 Z M 73.84375 6.472656 "/>
<path style=" stroke:none;fill-rule:nonzero;fill:rgb(87.843138%,47.450981%,16.078432%);fill-opacity:1;" d="M 158.308594 12.941406 C 164.78125 15.042969 171.175781 17.382812 177.476562 19.960938 C 182.40625 21.992188 187.28125 24.175781 191.972656 26.714844 C 194.246094 27.957031 196.476562 29.285156 198.578125 30.800781 C 190.542969 37.03125 183.058594 43.9375 175.855469 51.09375 C 166.828125 60.140625 158.351562 69.730469 150.53125 79.832031 C 137.851562 96.21875 125.558594 112.910156 113.632812 129.851562 C 110.253906 134.683594 106.875 139.511719 103.660156 144.453125 C 108.492188 130.570312 113.65625 116.800781 119.007812 103.109375 C 124.570312 88.90625 130.433594 74.820312 136.613281 60.871094 C 140.039062 53.085938 143.507812 45.316406 147.054688 37.585938 C 149.953125 31.226562 152.972656 24.925781 155.886719 18.578125 C 156.730469 16.714844 157.542969 14.839844 158.308594 12.941406 Z M 158.308594 12.941406 "/>
<path style=" stroke:none;fill-rule:nonzero;fill:rgb(61.960787%,20.784314%,12.941177%);fill-opacity:1;" d="M 9.988281 25.542969 C 20.011719 20.226562 30.675781 16.144531 41.613281 13.140625 C 51.265625 34.355469 60.863281 55.597656 70.140625 76.980469 C 76.277344 91.1875 82.238281 105.480469 87.695312 119.964844 C 90.730469 128.0625 93.632812 136.214844 96.140625 144.496094 C 87.9375 132.496094 79.710938 120.515625 71.300781 108.660156 C 68.878906 105.261719 66.449219 101.867188 63.949219 98.527344 C 62.007812 95.910156 59.9375 93.394531 57.957031 90.808594 C 45.855469 75.140625 33.300781 59.738281 19.0625 45.9375 C 13.449219 40.515625 7.574219 35.355469 1.277344 30.734375 C 4.0625 28.820312 7.003906 27.136719 9.988281 25.542969 Z M 9.988281 25.542969 "/>
<path style=" stroke:none;fill-rule:nonzero;fill:rgb(100%,0%,0%);fill-opacity:1;" d="M 54.179688 213.59375 C 54.953125 213.242188 55.773438 212.996094 56.566406 212.679688 C 56.945312 212.539062 57.546875 212.3125 57.738281 212.835938 C 57.074219 216.910156 56.265625 220.964844 55.625 225.046875 C 55.480469 225.660156 56.15625 225.675781 56.574219 225.734375 C 56.898438 225.894531 56.785156 226.242188 56.753906 226.527344 C 55.449219 226.527344 54.144531 226.523438 52.839844 226.53125 C 52.5625 226.511719 52.222656 226.59375 52.046875 226.316406 C 52.011719 226.109375 52.019531 225.902344 52.078125 225.699219 C 52.382812 225.679688 52.703125 225.703125 53.003906 225.609375 C 53.402344 225.386719 53.46875 224.886719 53.566406 224.488281 C 54.011719 222.011719 54.441406 219.535156 54.882812 217.058594 C 55.035156 216.109375 55.269531 215.164062 55.261719 214.199219 C 54.914062 214.246094 54.570312 214.328125 54.230469 214.429688 C 54.140625 214.15625 53.960938 213.855469 54.179688 213.59375 Z M 54.179688 213.59375 "/>
<path style=" stroke:none;fill-rule:nonzero;fill:rgb(100%,0%,0%);fill-opacity:1;" d="M 82.933594 213.640625 C 84.121094 213.277344 85.234375 212.640625 86.472656 212.484375 C 86.835938 212.816406 86.632812 213.285156 86.574219 213.703125 C 86.121094 216.210938 85.683594 218.722656 85.238281 221.234375 C 85.0625 222.488281 84.6875 223.726562 84.699219 224.996094 C 84.988281 225.300781 85.539062 224.757812 85.832031 225.164062 C 85.875 225.285156 85.964844 225.527344 86.011719 225.648438 C 84.816406 226.054688 83.671875 226.699219 82.410156 226.832031 C 82.191406 226.558594 82.21875 226.238281 82.28125 225.921875 C 81.4375 226.59375 80.3125 226.976562 79.234375 226.730469 C 77.992188 226.472656 77.085938 225.339844 76.859375 224.128906 C 76.460938 221.761719 77.671875 219.332031 79.527344 217.890625 C 80.710938 216.992188 82.492188 216.574219 83.792969 217.464844 C 83.953125 216.386719 84.234375 215.320312 84.242188 214.226562 C 83.945312 214.25 83.65625 214.296875 83.359375 214.316406 C 83.015625 214.257812 83.015625 213.898438 82.933594 213.640625 M 81.375 218.296875 C 79.867188 218.984375 79.320312 220.75 79.183594 222.277344 C 79.0625 223.308594 79.390625 224.542969 80.402344 225.019531 C 81.152344 225.355469 81.96875 224.929688 82.515625 224.414062 C 82.792969 223.484375 82.863281 222.5 83.066406 221.554688 C 83.183594 220.691406 83.542969 219.765625 83.152344 218.921875 C 82.867188 218.265625 82.011719 217.988281 81.375 218.296875 Z M 81.375 218.296875 "/>
<path style=" stroke:none;fill-rule:nonzero;fill:rgb(100%,0%,0%);fill-opacity:1;" d="M 99.335938 213.660156 C 100.328125 213.296875 101.3125 212.910156 102.3125 212.566406 C 102.628906 212.429688 102.972656 212.523438 103.183594 212.792969 C 102.851562 214.558594 102.585938 216.335938 102.222656 218.09375 L 102.058594 218.269531 C 102.355469 218.308594 102.527344 218.007812 102.757812 217.871094 C 103.640625 217.128906 104.949219 216.664062 106.046875 217.210938 C 106.84375 217.632812 107.082031 218.617188 107.035156 219.453125 C 106.90625 221.398438 106.328125 223.289062 106.167969 225.234375 C 106.109375 225.890625 107.054688 225.460938 107.222656 225.996094 C 107.210938 226.125 107.191406 226.394531 107.179688 226.527344 C 105.683594 226.511719 104.183594 226.550781 102.6875 226.507812 C 102.339844 226.367188 102.433594 225.984375 102.472656 225.699219 C 103.042969 225.71875 103.859375 225.738281 103.988281 225.019531 C 104.316406 223.4375 104.578125 221.839844 104.839844 220.242188 C 104.90625 219.703125 105.058594 218.839844 104.355469 218.664062 C 103.414062 218.503906 102.644531 219.179688 101.964844 219.726562 C 101.644531 221.5625 101.253906 223.386719 101.027344 225.238281 C 101.003906 225.746094 101.664062 225.617188 101.992188 225.738281 C 102.316406 225.890625 102.195312 226.246094 102.175781 226.527344 C 100.855469 226.527344 99.535156 226.519531 98.214844 226.53125 C 97.933594 226.511719 97.597656 226.589844 97.410156 226.320312 C 97.40625 226.171875 97.398438 225.871094 97.394531 225.722656 C 97.972656 225.703125 98.785156 225.671875 98.875 224.941406 C 99.375 222.515625 99.746094 220.066406 100.195312 217.632812 C 100.371094 216.496094 100.675781 215.371094 100.671875 214.214844 C 100.316406 214.207031 99.910156 214.433594 99.585938 214.230469 C 99.523438 214.089844 99.398438 213.804688 99.335938 213.660156 Z M 99.335938 213.660156 "/>
<path style=" stroke:none;fill-rule:nonzero;fill:rgb(100%,0%,0%);fill-opacity:1;" d="M 175.066406 214.636719 C 175.09375 213.707031 175.898438 212.742188 176.890625 212.910156 C 177.765625 213.050781 177.929688 214.09375 177.714844 214.800781 C 176.960938 217.582031 176.117188 220.339844 175.339844 223.113281 C 175.003906 223.101562 174.464844 223.121094 174.515625 222.648438 C 174.695312 219.976562 174.859375 217.304688 175.066406 214.636719 Z M 175.066406 214.636719 "/>
<path style=" stroke:none;fill-rule:nonzero;fill:rgb(100%,0%,0%);fill-opacity:1;" d="M 22 213.171875 C 23.652344 213.175781 25.308594 213.144531 26.960938 213.183594 C 27.304688 213.320312 27.210938 213.703125 27.175781 213.992188 C 26.609375 213.9375 25.675781 214.046875 25.789062 214.828125 C 26.105469 217.371094 26.644531 219.882812 27.058594 222.414062 C 27.984375 220.644531 28.925781 218.878906 29.84375 217.101562 C 29.625 216.222656 29.648438 215.269531 29.230469 214.453125 C 28.984375 213.945312 28.316406 214.101562 27.972656 213.71875 C 28.003906 213.578125 28.0625 213.304688 28.089844 213.167969 C 29.820312 213.179688 31.554688 213.140625 33.285156 213.183594 C 33.636719 213.316406 33.53125 213.707031 33.5 213.996094 C 32.953125 213.980469 32.09375 213.921875 32.007812 214.652344 C 31.929688 215.785156 32.265625 216.894531 32.429688 218.011719 C 32.691406 219.488281 32.957031 220.964844 33.214844 222.441406 C 34.261719 220.425781 35.320312 218.414062 36.375 216.402344 C 36.6875 215.777344 37.054688 215.164062 37.214844 214.480469 C 37.21875 213.945312 36.53125 214.078125 36.179688 213.953125 C 35.871094 213.785156 35.984375 213.441406 36.011719 213.167969 C 37.285156 213.171875 38.554688 213.15625 39.828125 213.171875 C 40.078125 213.113281 40.226562 213.316406 40.375 213.476562 C 40.347656 213.601562 40.296875 213.851562 40.269531 213.980469 C 39.445312 213.886719 38.78125 214.449219 38.445312 215.152344 C 36.414062 219.03125 34.398438 222.917969 32.375 226.804688 C 32.113281 226.800781 31.851562 226.800781 31.589844 226.804688 C 31.132812 224.273438 30.671875 221.742188 30.21875 219.210938 C 28.859375 221.734375 27.527344 224.277344 26.175781 226.804688 C 25.929688 226.800781 25.679688 226.800781 25.433594 226.800781 C 24.695312 222.757812 23.96875 218.714844 23.222656 214.671875 C 23.171875 214.140625 22.625 213.992188 22.175781 213.972656 C 22.109375 213.90625 21.980469 213.769531 21.914062 213.703125 C 21.9375 213.570312 21.980469 213.304688 22 213.171875 Z M 22 213.171875 "/>
<path style=" stroke:none;fill-rule:nonzero;fill:rgb(100%,0%,0%);fill-opacity:1;" d="M 95.984375 214.644531 C 96.101562 214.21875 96.710938 214.285156 96.847656 214.671875 C 96.75 215.539062 96.546875 216.390625 96.414062 217.25 C 97.058594 217.355469 97.902344 216.980469 98.394531 217.539062 C 98.328125 217.839844 98.273438 218.148438 98.21875 218.457031 C 97.542969 218.453125 96.871094 218.453125 96.199219 218.457031 C 95.871094 220.34375 95.519531 222.230469 95.203125 224.121094 C 95.175781 224.414062 95.054688 224.90625 95.4375 225.035156 C 95.9375 225.121094 96.335938 224.75 96.632812 224.398438 C 96.753906 224.394531 96.992188 224.390625 97.113281 224.390625 C 97.179688 224.496094 97.300781 224.707031 97.363281 224.8125 C 96.855469 225.671875 96.089844 226.445312 95.078125 226.660156 C 94.351562 226.839844 93.46875 226.546875 93.148438 225.839844 C 92.90625 225.292969 93.007812 224.675781 93.085938 224.105469 C 93.414062 222.21875 93.75 220.339844 94.082031 218.453125 C 93.738281 218.449219 93.394531 218.453125 93.050781 218.460938 C 92.980469 218.382812 92.839844 218.234375 92.773438 218.160156 C 92.789062 218.042969 92.820312 217.8125 92.835938 217.695312 C 94.238281 217.125 95.289062 215.949219 95.984375 214.644531 Z M 95.984375 214.644531 "/>
<path style=" stroke:none;fill-rule:nonzero;fill:rgb(100%,0%,0%);fill-opacity:1;" d="M 39.804688 218.542969 C 41.070312 217.15625 43.300781 216.457031 45.023438 217.402344 C 46.304688 218.148438 46.554688 219.804688 46.25 221.140625 C 44.25 221.152344 42.246094 221.136719 40.238281 221.148438 C 40.140625 222.121094 40.15625 223.226562 40.871094 223.980469 C 41.601562 224.84375 42.972656 224.859375 43.878906 224.269531 C 44.457031 223.90625 44.765625 223.277344 45.167969 222.75 C 45.46875 222.585938 45.710938 222.832031 45.953125 222.972656 C 45.539062 224.320312 44.648438 225.539062 43.433594 226.273438 C 42.261719 226.957031 40.664062 227.023438 39.535156 226.21875 C 38.578125 225.535156 38.082031 224.347656 38.105469 223.191406 C 38.125 221.519531 38.640625 219.785156 39.804688 218.542969 M 42.105469 218.273438 C 41.339844 218.539062 40.808594 219.210938 40.503906 219.9375 C 41.640625 219.945312 42.777344 219.9375 43.917969 219.941406 C 43.914062 219.488281 43.976562 218.976562 43.644531 218.617188 C 43.28125 218.167969 42.625 218.066406 42.105469 218.273438 Z M 42.105469 218.273438 "/>
<path style=" stroke:none;fill-rule:nonzero;fill:rgb(100%,0%,0%);fill-opacity:1;" d="M 60.355469 218.449219 C 61.632812 217.121094 63.8125 216.476562 65.492188 217.40625 C 66.769531 218.152344 67.015625 219.808594 66.714844 221.140625 C 64.710938 221.152344 62.707031 221.136719 60.703125 221.148438 C 60.609375 222.082031 60.605469 223.128906 61.253906 223.882812 C 61.84375 224.671875 62.96875 224.855469 63.855469 224.511719 C 64.667969 224.226562 65.183594 223.476562 65.578125 222.753906 C 65.890625 222.648438 66.164062 222.789062 66.414062 222.96875 C 66 224.320312 65.113281 225.539062 63.894531 226.273438 C 62.726562 226.953125 61.136719 227.023438 60.007812 226.226562 C 59.039062 225.542969 58.542969 224.347656 58.566406 223.183594 C 58.589844 221.472656 59.132812 219.6875 60.355469 218.449219 M 62.566406 218.273438 C 61.800781 218.539062 61.269531 219.210938 60.964844 219.9375 C 62.101562 219.945312 63.242188 219.9375 64.378906 219.941406 C 64.375 219.492188 64.4375 218.980469 64.109375 218.625 C 63.75 218.167969 63.089844 218.066406 62.566406 218.273438 Z M 62.566406 218.273438 "/>
<path style=" stroke:none;fill-rule:nonzero;fill:rgb(100%,0%,0%);fill-opacity:1;" d="M 69.960938 217.636719 C 71.105469 216.90625 72.589844 216.8125 73.878906 217.167969 C 74.65625 217.367188 75.269531 218.09375 75.234375 218.910156 C 75.109375 221.03125 74.425781 223.082031 74.320312 225.199219 C 74.675781 225 75.015625 224.777344 75.347656 224.539062 C 75.453125 224.605469 75.664062 224.734375 75.769531 224.800781 C 75.746094 224.941406 75.699219 225.214844 75.671875 225.351562 C 74.9375 226.078125 74.039062 226.902344 72.925781 226.785156 C 72.347656 226.726562 72.09375 226.160156 72.042969 225.652344 C 71.292969 226.164062 70.515625 226.757812 69.566406 226.796875 C 68.761719 226.882812 67.890625 226.472656 67.578125 225.703125 C 67.140625 224.582031 67.539062 223.21875 68.460938 222.460938 C 69.757812 221.371094 71.417969 220.871094 72.976562 220.285156 C 73.027344 219.675781 73.265625 218.953125 72.859375 218.425781 C 72.316406 217.992188 71.425781 218.113281 71.007812 218.660156 C 70.691406 219.164062 70.863281 219.878906 70.402344 220.316406 C 69.929688 220.871094 68.820312 220.800781 68.640625 220.019531 C 68.453125 219.027344 69.175781 218.144531 69.960938 217.636719 M 70.398438 222.722656 C 69.921875 223.089844 69.574219 223.683594 69.640625 224.308594 C 69.660156 224.734375 70.023438 225.171875 70.484375 225.140625 C 70.992188 225.085938 71.445312 224.8125 71.878906 224.558594 C 72.039062 224.4375 72.28125 224.351562 72.285156 224.117188 C 72.453125 223.273438 72.585938 222.421875 72.734375 221.574219 C 71.929688 221.894531 71.089844 222.179688 70.398438 222.722656 Z M 70.398438 222.722656 "/>
<path style=" stroke:none;fill-rule:nonzero;fill:rgb(100%,0%,0%);fill-opacity:1;" d="M 109.453125 220.09375 C 110.167969 218.488281 111.695312 217.1875 113.484375 217.003906 C 114.582031 216.851562 115.835938 217.171875 116.488281 218.128906 C 117.132812 218.988281 117.117188 220.128906 116.9375 221.140625 C 114.933594 221.152344 112.929688 221.140625 110.925781 221.148438 C 110.820312 222.113281 110.839844 223.214844 111.550781 223.96875 C 112.273438 224.839844 113.648438 224.863281 114.558594 224.273438 C 115.117188 223.917969 115.433594 223.320312 115.8125 222.800781 C 116.105469 222.527344 116.382812 222.832031 116.640625 222.984375 C 116.222656 224.285156 115.386719 225.46875 114.222656 226.210938 C 113.148438 226.886719 111.703125 227.019531 110.558594 226.429688 C 109.574219 225.902344 108.933594 224.851562 108.824219 223.753906 C 108.695312 222.503906 108.957031 221.238281 109.453125 220.09375 M 112.78125 218.277344 C 112.023438 218.542969 111.492188 219.210938 111.1875 219.9375 C 112.324219 219.945312 113.464844 219.9375 114.601562 219.941406 C 114.601562 219.488281 114.660156 218.976562 114.328125 218.617188 C 113.964844 218.167969 113.304688 218.066406 112.78125 218.277344 Z M 112.78125 218.277344 "/>
<path style=" stroke:none;fill-rule:nonzero;fill:rgb(100%,0%,0%);fill-opacity:1;" d="M 139.464844 218.144531 C 140.46875 217.101562 142.023438 216.832031 143.410156 217.03125 C 144.097656 217.128906 144.855469 217.421875 145.175781 218.089844 C 145.546875 218.871094 145.269531 219.753906 145.160156 220.566406 C 144.921875 222.109375 144.527344 223.632812 144.4375 225.195312 C 144.800781 225.003906 145.140625 224.78125 145.472656 224.542969 C 145.582031 224.609375 145.804688 224.742188 145.917969 224.808594 C 145.878906 225.476562 145.28125 225.855469 144.804688 226.226562 C 144.21875 226.640625 143.417969 227.007812 142.714844 226.667969 C 142.320312 226.484375 142.246094 226.027344 142.171875 225.652344 C 141.417969 226.167969 140.636719 226.761719 139.6875 226.796875 C 138.882812 226.878906 138.015625 226.46875 137.707031 225.703125 C 137.265625 224.582031 137.664062 223.222656 138.585938 222.460938 C 139.882812 221.371094 141.542969 220.871094 143.105469 220.285156 C 143.152344 219.675781 143.394531 218.949219 142.980469 218.421875 C 142.402344 217.957031 141.414062 218.136719 141.046875 218.789062 C 140.871094 219.296875 140.933594 219.910156 140.527344 220.320312 C 140.085938 220.8125 139.109375 220.832031 138.820312 220.167969 C 138.554688 219.441406 138.945312 218.65625 139.464844 218.144531 M 140.078125 223.195312 C 139.664062 223.738281 139.574219 224.714844 140.265625 225.078125 C 140.839844 225.273438 141.394531 224.886719 141.882812 224.632812 C 142.074219 224.484375 142.390625 224.398438 142.414062 224.117188 C 142.578125 223.269531 142.710938 222.421875 142.863281 221.574219 C 141.875 221.980469 140.746094 222.308594 140.078125 223.195312 Z M 140.078125 223.195312 "/>
<path style=" stroke:none;fill-rule:nonzero;fill:rgb(100%,0%,0%);fill-opacity:1;" d="M 123.515625 217.996094 C 123.554688 217.742188 123.601562 217.496094 123.644531 217.25 C 124.945312 217.273438 126.25 217.203125 127.542969 217.28125 C 127.816406 217.457031 127.726562 217.765625 127.703125 218.039062 C 127.433594 218.082031 127.160156 218.109375 126.90625 218.214844 C 126.6875 218.527344 126.796875 218.929688 126.847656 219.28125 C 127.117188 220.679688 127.382812 222.078125 127.652344 223.476562 C 128.351562 222.355469 129.082031 221.253906 129.761719 220.121094 C 129.789062 219.589844 129.605469 219.054688 129.46875 218.546875 C 129.378906 218.132812 128.933594 218.117188 128.597656 218.046875 C 128.542969 217.972656 128.433594 217.832031 128.375 217.757812 C 128.40625 217.585938 128.441406 217.417969 128.476562 217.25 C 129.914062 217.265625 131.355469 217.222656 132.792969 217.265625 C 133.125 217.398438 133.046875 217.761719 133.019531 218.046875 C 132.542969 218.113281 131.796875 218.09375 131.75 218.734375 C 132 220.246094 132.371094 221.738281 132.671875 223.242188 C 133.242188 222.207031 133.820312 221.171875 134.390625 220.136719 C 134.738281 219.5 135.144531 218.878906 135.339844 218.171875 C 135.183594 218.144531 134.871094 218.085938 134.714844 218.058594 C 134.660156 217.984375 134.546875 217.835938 134.492188 217.765625 C 134.511719 217.640625 134.546875 217.386719 134.566406 217.261719 C 135.570312 217.261719 136.578125 217.207031 137.582031 217.28125 C 137.847656 217.449219 137.769531 217.75 137.75 218.011719 C 137.171875 218.109375 136.671875 218.453125 136.402344 218.976562 C 134.929688 221.578125 133.476562 224.195312 132.015625 226.800781 C 131.757812 226.800781 131.496094 226.800781 131.242188 226.804688 C 130.878906 225.097656 130.523438 223.394531 130.160156 221.691406 C 129.078125 223.394531 128.007812 225.101562 126.925781 226.804688 C 126.746094 226.804688 126.382812 226.804688 126.203125 226.804688 C 125.738281 224.484375 125.261719 222.164062 124.804688 219.839844 C 124.695312 219.359375 124.644531 218.851562 124.40625 218.414062 C 124.191406 218.136719 123.8125 218.109375 123.515625 217.996094 Z M 123.515625 217.996094 "/>
<path style=" stroke:none;fill-rule:nonzero;fill:rgb(100%,0%,0%);fill-opacity:1;" d="M 147.347656 217.25 C 148.765625 217.261719 150.1875 217.222656 151.605469 217.265625 C 151.925781 217.417969 151.867188 217.777344 151.824219 218.070312 C 151.441406 218.105469 150.929688 217.992188 150.703125 218.394531 C 150.566406 218.972656 150.839844 219.539062 150.992188 220.089844 C 151.316406 221.109375 151.632812 222.136719 151.953125 223.164062 C 152.726562 221.832031 153.5 220.5 154.28125 219.175781 C 154.472656 218.859375 154.597656 218.507812 154.710938 218.164062 C 154.171875 218.183594 153.726562 217.800781 153.957031 217.25 C 154.96875 217.265625 155.980469 217.21875 156.992188 217.265625 C 157.34375 217.351562 157.269531 217.757812 157.242188 218.027344 C 156.765625 218.074219 156.285156 218.261719 156.050781 218.707031 C 154.214844 221.820312 152.382812 224.933594 150.546875 228.046875 C 149.839844 229.230469 148.75 230.316406 147.347656 230.578125 C 146.621094 230.75 145.734375 230.300781 145.671875 229.507812 C 145.558594 228.609375 146.46875 227.824219 147.34375 228.039062 C 147.839844 228.089844 148.367188 228.617188 148.816406 228.175781 C 149.570312 227.511719 149.921875 226.53125 150.46875 225.710938 C 149.800781 223.507812 149.148438 221.296875 148.441406 219.105469 C 148.28125 218.507812 147.855469 218.058594 147.222656 217.992188 C 147.261719 217.742188 147.304688 217.496094 147.347656 217.25 Z M 147.347656 217.25 "/>
<path style=" stroke:none;fill-rule:nonzero;fill:rgb(100%,0%,0%);fill-opacity:1;" d="M 157.238281 224.191406 C 157.882812 223.921875 158.730469 224.308594 158.828125 225.027344 C 159.074219 226.179688 157.609375 227.296875 156.605469 226.578125 C 155.734375 225.90625 156.265625 224.460938 157.238281 224.191406 Z M 157.238281 224.191406 "/>
<path style=" stroke:none;fill-rule:nonzero;fill:rgb(100%,0%,0%);fill-opacity:1;" d="M 162.617188 224.199219 C 163.253906 223.917969 164.113281 224.292969 164.21875 225.015625 C 164.480469 226.179688 162.984375 227.316406 161.980469 226.566406 C 161.140625 225.886719 161.660156 224.472656 162.617188 224.199219 Z M 162.617188 224.199219 "/>
<path style=" stroke:none;fill-rule:nonzero;fill:rgb(100%,0%,0%);fill-opacity:1;" d="M 168.007812 224.199219 C 168.652344 223.917969 169.511719 224.296875 169.613281 225.019531 C 169.867188 226.175781 168.398438 227.300781 167.390625 226.578125 C 166.527344 225.90625 167.046875 224.476562 168.007812 224.199219 Z M 168.007812 224.199219 "/>
<path style=" stroke:none;fill-rule:nonzero;fill:rgb(100%,0%,0%);fill-opacity:1;" d="M 174.171875 224.203125 C 174.820312 223.910156 175.691406 224.296875 175.804688 225.023438 C 176.0625 226.195312 174.53125 227.332031 173.539062 226.542969 C 172.742188 225.855469 173.25 224.5 174.171875 224.203125 Z M 174.171875 224.203125 "/>
</g>
</svg>
